Coordinates
version=1
nRows=14
nColumns=24
inDegrees=yes

Units are S.I. units (second, meters, Newtons, ...)
Angles are in degrees.

endheader
time	pelvis_tilt	pelvis_list	pelvis_rotation	pelvis_tx	pelvis_ty	pelvis_tz	hip_flexion_r	hip_adduction_r	hip_rotation_r	knee_angle_r	ankle_angle_r	subtalar_angle_r	mtp_angle_r	hip_flexion_l	hip_adduction_l	hip_rotation_l	knee_angle_l	ankle_angle_l	subtalar_angle_l	mtp_angle_l	lumbar_extension	lumbar_bending	lumbar_rotation
      0.92516667	     -4.43593242	     -0.55166208	     -5.54317624	     -0.13548434	      0.89650964	      0.33793903	    -11.21279392	      3.90345876	      1.72151708	     -9.55861031	     14.46734813	      7.59807420	     10.44556067	     31.04792012	     -2.27085953	     -8.29822689	    -15.39374451	      3.14784653	     -3.11298316	      2.05203442	     -3.04158602	      1.34569088	      9.97308517
      0.92933333	     -4.54141596	     -0.54639344	     -5.66038475	     -0.12972041	      0.89519496	      0.33779601	    -11.17692974	      3.82004928	      1.81490397	    -10.23288564	     14.69478095	      7.79662523	     10.58741456	     31.12650448	     -2.27164604	     -8.08827753	    -15.37481385	      3.24919436	     -3.11633613	      2.04207052	     -2.88170966	      1.28428164	     10.05203203
      0.93350000	     -4.64131805	     -0.51868003	     -5.77427763	     -0.12391175	      0.89393371	      0.33761222	    -11.11437846	      3.70450252	      1.84195022	    -10.96732709	     14.86104890	      8.09557906	     10.86706622	     31.17606030	     -2.23812792	     -7.86319361	    -15.40658815	      3.29871324	     -3.14979088	      2.02631748	     -2.72275831	      1.23867674	     10.14361181
      0.93766667	     -4.73406335	     -0.49174490	     -5.87709696	     -0.11810570	      0.89270598	      0.33743701	    -11.04289390	      3.59776000	      1.91129673	    -11.73751477	     15.01128213	      8.26629932	     11.16642025	     31.23154565	     -2.20502429	     -7.66768331	    -15.55648155	      3.34907407	     -3.20192558	      2.01996322	     -2.56980033	      1.16331493	     10.17372915
      0.94183333	     -4.81042827	     -0.45452788	     -5.96773691	     -0.11227716	      0.89153357	      0.33726760	    -10.97805530	      3.48710279	      2.01792865	    -12.53124019	     15.14920918	      8.36652172	     11.38059652	     31.27553537	     -2.15689874	     -7.49762939	    -15.80700283	      3.39349645	     -3.26782839	      2.02359970	     -2.44697252	      1.03963537	     10.17594047
      0.94600000	     -4.90848256	     -0.41281404	     -6.05321674	     -0.10644845	      0.89036888	      0.33705255	    -10.83707432	      3.36688358	      2.05339836	    -13.42486555	     15.23422056	      8.54741506	     11.63038290	     31.33931294	     -2.09817295	     -7.33812761	    -16.11957513	      3.38029962	     -3.36636637	      2.03438633	     -2.28600651	      0.94043682	     10.17234348
      0.95016667	     -4.92238562	     -0.31275785	     -6.12125405	     -0.10054569	      0.88937857	      0.33672331	    -10.73962616	      3.15037038	      1.91179692	    -14.40342215	     15.32192655	      9.00140138	     13.08283961	     31.26329393	     -1.93708054	     -7.12798672	    -16.39219713	      3.31621011	     -3.64945768	      2.12619971	     -2.22236178	      0.77472657	     10.20016160
      0.95433333	     -5.06360530	     -0.29376768	     -6.19034776	     -0.09473776	      0.88823324	      0.33652218	    -10.51013863	      3.07873794	      2.04516422	    -15.37212631	     15.24799138	      8.94892984	     13.28359100	     31.40860505	     -1.91195739	     -7.05738245	    -16.90297946	      3.21943377	     -3.69157854	      2.14526900	     -2.00855130	      0.69626540	     10.12465352
      0.95850000	     -5.13859342	     -0.21567777	     -6.23973025	     -0.08885327	      0.88725505	      0.33619792	    -10.30107875	      2.90931218	      1.98370215	    -16.41886863	     15.06928408	      9.13637378	     17.09327372	     31.42544808	     -1.77890529	     -6.91061010	    -17.33527747	      3.03948114	     -3.99335278	      2.60339479	     -1.86232606	      0.55350087	     10.07004178
      0.96266667	     -5.21832986	     -0.16223839	     -6.28060552	     -0.08301519	      0.88627177	      0.33590632	    -10.04962614	      2.78173430	      1.98551956	    -17.55577596	     15.01449501	      9.28439066	     17.15780226	     31.49841557	     -1.69162909	     -6.86779134	    -17.92636203	      2.99084130	     -4.06300597	      2.62016541	     -1.72462481	      0.42407784	      9.98411607
      0.96683333	     -5.30142929	     -0.08694868	     -6.31222239	     -0.07715865	      0.88535663	      0.33556266	     -9.75327658	      2.62283326	      1.93524920	    -18.75680782	     14.86444403	      9.48945853	     17.27176426	     31.55620125	     -1.56672159	     -6.81178686	    -18.50733851	      2.86372375	     -4.24445079	      2.64351856	     -1.57354713	      0.27287961	      9.88772100
      0.97100000	     -5.33172315	      0.02017588	     -6.31564392	     -0.07128464	      0.88457089	      0.33510221	     -9.46543302	      2.40450201	      1.75841785	    -20.03889192	     14.69102126	      9.87939101	     17.79374887	     31.53437816	     -1.36800408	     -6.69228355	    -19.05663914	      2.70220810	     -4.60269675	      2.74748657	     -1.49408972	      0.09738621	      9.77744683
      0.97516667	     -5.42551709	      0.09316150	     -6.33083637	     -0.06546198	      0.88375259	      0.33476002	     -9.08535965	      2.25998584	      1.74726151	    -21.35481969	     14.38722246	      9.93673423	     17.95914264	     31.61969390	     -1.25059786	     -6.69931902	    -19.72010785	      2.58782441	     -4.73211744	      2.77915704	     -1.33064424	     -0.07051504	      9.64783534
      0.97933333	     -5.47987619	      0.18682949	     -6.30176606	     -0.05963734	      0.88304072	      0.33426147	     -8.69767730	      2.06502026	      1.57167941	    -22.74273220	     13.98639527	     10.14968984	     21.69468236	     31.64313728	     -1.05765841	     -6.58918566	    -20.34269573	      2.43519709	     -5.08308201	      3.46901114	     -1.21879180	     -0.22753213	      9.50385606
